PathFileType	4	(X/Y/Z)	C:\Users\WrightLab\Desktop\Jo\P4V127.trc
DataRate	CameraRate	NumFrames	NumMarkers	Units	OrigDataRate	OrigDataStartFrame	OrigNumFrames
100.00	100.00	       11	19	mm	100.00	322	       642
Frame#	Time	Headset_Front			Headset_Back			Headset_Left			Headset_Right			Left_Shoulder			Right_Shoulder			Sternum			C7			Left Elbow			Right Elbow			Left Wrist			Right Wrist			Left ASIS			Right ASIS			S2			Left Knee			Right Knee			Left Ankle			Right Ankle			
		X1	Y1	Z1	X2	Y2	Z2	X3	Y3	Z3	X4	Y4	Z4	X5	Y5	Z5	X6	Y6	Z6	X7	Y7	Z7	X8	Y8	Z8	X9	Y9	Z9	X10	Y10	Z10	X11	Y11	Z11	X12	Y12	Z12	X13	Y13	Z13	X14	Y14	Z14	X15	Y15	Z15	X16	Y16	Z16	X17	Y17	Z17	X18	Y18	Z18	X19	Y19	Z19	

322	3.210	-292.14883	1686.11902	268.13126	-464.45050	1047.51880	13.21122							-268.75409	1521.30542	9.34214	-529.54956	1529.55835	162.47008	-334.17111	1465.31519	176.30312	-433.24307	1555.69666	38.28353	-135.17096	1175.64417	-50.46530	-672.81543	1188.82202	235.31734	-98.48499	909.74310	111.47949	-560.90411	946.55115	385.39981	-237.60687	1019.68988	71.62512	-497.70679	1049.37109	281.36960				-160.70363	567.98059	181.67168	-502.17285	561.21088	299.83066	-477.31277	257.67838	-67.81461	-553.93243	59.61154	200.04160	
323	3.220	-286.84808	1686.82947	277.68723	-460.28754	1047.66138	21.79794							-264.37070	1522.80676	17.26948	-524.05054	1530.56604	173.50224	-327.86960	1466.02173	184.60927	-428.79855	1556.76477	48.06130	-132.39639	1176.60034	-47.66127	-666.05334	1190.35742	248.92548	-91.53416	911.15912	113.47797	-550.27942	948.28735	397.40598	-233.25233	1021.89203	78.70896	-491.52533	1048.91406	290.51355				-148.11215	574.68243	195.40948	-499.22296	560.58496	304.28119	-463.56763	252.19623	-42.49630	-553.69598	59.82457	200.03345	
324	3.230	-281.35135	1687.00977	287.06644										-260.42880	1523.37000	25.41544	-517.86462	1531.54187	184.28459	-322.56458	1466.81445	192.99184	-424.10944	1557.30566	57.92635	-130.41859	1178.16187	-45.20461	-659.20807	1191.85095	262.43216	-85.14346	912.53284	116.14868	-540.37604	950.93054	409.84131	-228.27136	1023.77124	86.07097	-485.81247	1048.75635	299.21606				-135.81400	581.59033	208.50365	-496.39304	560.19031	307.92926	-448.56143	244.80963	-16.89516	-553.34509	60.17194	200.05663	
325	3.240	-275.72495	1686.87244	296.59659	-451.52966	1048.29175	38.77105							-256.25388	1524.11584	32.23709	-511.64621	1532.39185	195.09174	-316.38293	1467.69751	201.69208	-419.50021	1557.92090	67.64857	-129.06860	1178.89075	-42.15627	-652.72839	1192.90869	276.37915	-78.66473	913.65009	116.61440	-529.54840	953.25714	421.90942	-223.73117	1025.33984	94.18280	-480.00464	1048.49255	308.38052				-124.16734	588.32727	221.37454	-493.00879	559.14648	312.09879	-432.05386	236.95558	8.34010	-553.21106	60.35381	200.17703	
326	3.250	-269.73553	1687.08459	305.89746	-446.76205	1048.29126	48.15985							-253.06786	1524.34546	39.34961	-505.21716	1532.87244	205.76584	-310.13632	1467.77539	209.72134	-414.79861	1558.35889	77.30373	-125.20277	1179.48828	-39.38147	-645.00201	1193.72803	289.79993	-71.97993	915.54846	120.24641	-518.97937	955.61346	434.70493	-218.48534	1026.63965	101.16113	-473.80209	1048.35364	317.31488				-113.15779	594.36548	233.56784	-489.85657	558.37274	316.70395	-414.22437	228.46144	33.91228	-552.96643	60.66746	200.35672	
327	3.260	-265.04865	1687.28027	315.64627										-248.05789	1524.68225	47.61940	-499.01105	1532.68982	216.23512	-304.24664	1468.13696	217.99687	-409.90863	1558.59351	86.80797	-124.21425	1179.66895	-36.56578	-638.65863	1194.40894	303.08417	-65.45509	916.49500	122.31619	-508.24814	957.99731	447.73404	-213.74606	1028.14465	108.84821	-467.80991	1048.57239	328.61203				-102.85639	599.94104	245.06773	-487.11368	557.70496	320.85217	-394.45767	220.35901	56.52251	-552.63251	61.11260	200.22905	
328	3.270	-258.76868	1686.60608	324.59555	-437.28082	1047.76758	65.37140							-243.89703	1523.85962	54.24191	-492.55136	1532.89221	226.25372	-297.75983	1467.64978	225.91995	-404.82281	1558.68372	96.20998	-121.52336	1179.60974	-32.69049	-631.65717	1194.87122	316.45572	-59.18448	916.34729	124.15308	-497.75500	959.53845	460.41681	-208.65649	1029.24438	116.35911	-460.42276	1048.21729	338.29285				-92.81079	605.42493	255.67842	-485.18710	556.93774	325.06818	-374.15277	209.87282	81.60032	-552.10181	61.54319	200.10580	
329	3.280	-252.33354	1685.81006	333.51114										-239.26294	1524.09180	62.11216	-485.97086	1532.53845	236.55792	-290.80026	1466.90540	233.66959	-399.31729	1558.58777	105.09789	-119.37691	1179.80103	-29.10976	-624.20972	1195.06970	329.53946	-53.79265	916.57800	126.51295	-485.72623	961.82312	473.36240	-202.98859	1030.01721	123.55475	-456.45853	1045.99963	345.25565				-82.80037	610.02185	266.17981	-481.69733	555.78088	328.83218	-352.48544	198.33035	106.03980	-551.87976	61.77495	199.88165	
330	3.290	-246.31894	1685.35474	342.72028							-388.30707	1716.55627	300.51895	-233.99760	1523.06653	69.72153	-479.08350	1531.95654	246.50519	-284.38287	1466.17810	241.70876	-394.15475	1558.13354	114.55045	-116.35945	1179.15747	-25.89168	-616.44489	1195.02075	342.65744	-48.51582	916.33240	128.15953	-474.75571	963.01758	486.10846	-197.81943	1030.15723	132.25117	-450.06100	1045.16882	353.97601	-427.06427	1047.05969	82.41069	-73.30399	613.71954	276.53229	-479.07245	554.90228	332.82840	-328.86063	186.66890	130.77797	-551.83295	61.94301	200.15195	
331	3.300	-240.57860	1684.43884	352.09818							-381.83865	1715.52722	309.59225	-228.71776	1522.99023	76.35342	-472.63626	1531.40845	256.42776	-277.80399	1464.68250	249.60193	-388.54642	1557.75256	123.66364	-113.65269	1179.04700	-22.29943	-608.20905	1195.41394	356.41345	-42.53157	916.02313	130.90779	-464.79236	965.12213	498.31802	-191.51308	1030.86035	140.47345	-442.94379	1044.38062	362.89255	-421.62979	1046.93970	89.24945	-64.89978	616.81335	286.34457	-476.33215	554.42072	336.59772	-302.96216	175.09782	153.38878	-551.67487	62.03989	200.16182	
332	3.310	-233.99878	1683.37976	360.79126							-376.10739	1714.79993	318.90555	-223.69714	1521.85181	84.87616	-465.83289	1530.61987	265.83960	-270.85721	1463.89648	257.35223	-382.75128	1557.03491	132.42059	-110.72733	1178.64441	-18.47526	-600.28381	1194.64050	369.02158	-36.97586	914.84705	132.48409	-453.30817	966.00598	510.76361	-186.54758	1029.87097	148.07938	-437.23654	1043.43347	371.06500				-56.69236	618.80865	295.55396	-473.02695	553.38251	340.07129	-277.72699	163.82043	178.36777	-551.46124	62.29283	200.14792	
